<mxfile host="app.diagrams.net" modified="2021-06-29T07:13:03.570Z" agent="5.0 (Windows NT 10.0; Win64; x64) AppleWebKit/537.36 (KHTML, like Gecko) Chrome/91.0.4472.114 Safari/537.36 Edg/91.0.864.59" etag="3iHesRzHoeztc1oKZFUW" version="14.8.2" type="github">
  <diagram id="qind4zmR83hFZyTUT4Tu" name="Page-1">
    <mxGraphModel dx="1308" dy="887" grid="1" gridSize="10" guides="1" tooltips="1" connect="1" arrows="1" fold="1" page="1" pageScale="1" pageWidth="827" pageHeight="1169" math="0" shadow="0">
      <root>
        <mxCell id="0" />
        <mxCell id="1" parent="0" />
        <mxCell id="411L8g53TmraRrab_YB8-76" value="市场" style="shape=umlActor;verticalLabelPosition=bottom;verticalAlign=top;html=1;outlineConnect=0;flipV=0;" vertex="1" parent="1">
          <mxGeometry x="40" y="180" width="30" height="60" as="geometry" />
        </mxCell>
        <mxCell id="411L8g53TmraRrab_YB8-77" value="" style="shape=umlLifeline;participant=umlEntity;perimeter=lifelinePerimeter;whiteSpace=wrap;html=1;container=1;collapsible=0;recursiveResize=0;verticalAlign=top;spacingTop=36;outlineConnect=0;" vertex="1" parent="1">
          <mxGeometry x="135" y="120" width="40" height="1180" as="geometry" />
        </mxCell>
        <mxCell id="411L8g53TmraRrab_YB8-78" value="技术" style="shape=umlActor;verticalLabelPosition=bottom;verticalAlign=top;html=1;outlineConnect=0;flipV=0;" vertex="1" parent="1">
          <mxGeometry x="40" y="300" width="30" height="60" as="geometry" />
        </mxCell>
        <mxCell id="411L8g53TmraRrab_YB8-79" value="生产" style="shape=umlActor;verticalLabelPosition=bottom;verticalAlign=top;html=1;outlineConnect=0;flipV=0;" vertex="1" parent="1">
          <mxGeometry x="40" y="660" width="30" height="60" as="geometry" />
        </mxCell>
        <mxCell id="411L8g53TmraRrab_YB8-80" value="发运" style="shape=umlActor;verticalLabelPosition=bottom;verticalAlign=top;html=1;outlineConnect=0;flipV=0;" vertex="1" parent="1">
          <mxGeometry x="40" y="1108.5" width="30" height="60" as="geometry" />
        </mxCell>
        <mxCell id="411L8g53TmraRrab_YB8-81" value="堆场" style="shape=umlActor;verticalLabelPosition=bottom;verticalAlign=top;html=1;outlineConnect=0;flipV=0;" vertex="1" parent="1">
          <mxGeometry x="40" y="998.5" width="30" height="60" as="geometry" />
        </mxCell>
        <mxCell id="411L8g53TmraRrab_YB8-82" value="采购" style="shape=umlActor;verticalLabelPosition=bottom;verticalAlign=top;html=1;outlineConnect=0;flipV=0;" vertex="1" parent="1">
          <mxGeometry x="40" y="400" width="30" height="60" as="geometry" />
        </mxCell>
        <mxCell id="411L8g53TmraRrab_YB8-83" value="库房" style="shape=umlActor;verticalLabelPosition=bottom;verticalAlign=top;html=1;outlineConnect=0;flipV=0;" vertex="1" parent="1">
          <mxGeometry x="40" y="511" width="30" height="60" as="geometry" />
        </mxCell>
        <mxCell id="411L8g53TmraRrab_YB8-84" value="" style="shape=umlLifeline;participant=umlEntity;perimeter=lifelinePerimeter;whiteSpace=wrap;html=1;container=1;collapsible=0;recursiveResize=0;verticalAlign=top;spacingTop=36;outlineConnect=0;" vertex="1" parent="1">
          <mxGeometry x="243" y="120" width="40" height="280" as="geometry" />
        </mxCell>
        <mxCell id="411L8g53TmraRrab_YB8-85" value="" style="shape=umlLifeline;participant=umlEntity;perimeter=lifelinePerimeter;whiteSpace=wrap;html=1;container=1;collapsible=0;recursiveResize=0;verticalAlign=top;spacingTop=36;outlineConnect=0;" vertex="1" parent="1">
          <mxGeometry x="337" y="120" width="40" height="1170" as="geometry" />
        </mxCell>
        <mxCell id="411L8g53TmraRrab_YB8-136" value="" style="html=1;shadow=0;" vertex="1" parent="411L8g53TmraRrab_YB8-85">
          <mxGeometry x="11" y="55" width="15" height="70" as="geometry" />
        </mxCell>
        <mxCell id="411L8g53TmraRrab_YB8-167" value="" style="html=1;shadow=0;" vertex="1" parent="411L8g53TmraRrab_YB8-85">
          <mxGeometry x="11" y="988.5" width="15" height="70" as="geometry" />
        </mxCell>
        <mxCell id="411L8g53TmraRrab_YB8-168" style="edgeStyle=orthogonalEdgeStyle;rounded=0;orthogonalLoop=1;jettySize=auto;html=1;exitX=1;exitY=0.5;exitDx=0;exitDy=0;entryX=0;entryY=0.5;entryDx=0;entryDy=0;" edge="1" source="411L8g53TmraRrab_YB8-170" target="411L8g53TmraRrab_YB8-167" parent="411L8g53TmraRrab_YB8-85">
          <mxGeometry relative="1" as="geometry" />
        </mxCell>
        <mxCell id="411L8g53TmraRrab_YB8-169" value="通知发货" style="edgeLabel;html=1;align=center;verticalAlign=middle;resizable=0;points=[];" vertex="1" connectable="0" parent="411L8g53TmraRrab_YB8-168">
          <mxGeometry x="-0.1233" y="1" relative="1" as="geometry">
            <mxPoint as="offset" />
          </mxGeometry>
        </mxCell>
        <mxCell id="411L8g53TmraRrab_YB8-170" value="" style="html=1;shadow=0;" vertex="1" parent="411L8g53TmraRrab_YB8-85">
          <mxGeometry x="-191" y="988.5" width="15" height="70" as="geometry" />
        </mxCell>
        <mxCell id="411L8g53TmraRrab_YB8-165" style="edgeStyle=orthogonalEdgeStyle;rounded=0;orthogonalLoop=1;jettySize=auto;html=1;exitX=0;exitY=0.75;exitDx=0;exitDy=0;entryX=1;entryY=0.75;entryDx=0;entryDy=0;" edge="1" source="411L8g53TmraRrab_YB8-167" target="411L8g53TmraRrab_YB8-170" parent="411L8g53TmraRrab_YB8-85">
          <mxGeometry relative="1" as="geometry" />
        </mxCell>
        <mxCell id="411L8g53TmraRrab_YB8-166" value="发货" style="edgeLabel;html=1;align=center;verticalAlign=middle;resizable=0;points=[];" vertex="1" connectable="0" parent="411L8g53TmraRrab_YB8-165">
          <mxGeometry x="0.7577" relative="1" as="geometry">
            <mxPoint x="63" as="offset" />
          </mxGeometry>
        </mxCell>
        <mxCell id="411L8g53TmraRrab_YB8-86" value="" style="shape=umlLifeline;participant=umlEntity;perimeter=lifelinePerimeter;whiteSpace=wrap;html=1;container=1;collapsible=0;recursiveResize=0;verticalAlign=top;spacingTop=36;outlineConnect=0;" vertex="1" parent="1">
          <mxGeometry x="460" y="120" width="39" height="760" as="geometry" />
        </mxCell>
        <mxCell id="411L8g53TmraRrab_YB8-87" value="" style="shape=umlLifeline;participant=umlEntity;perimeter=lifelinePerimeter;whiteSpace=wrap;html=1;container=1;collapsible=0;recursiveResize=0;verticalAlign=top;spacingTop=36;outlineConnect=0;" vertex="1" parent="1">
          <mxGeometry x="566" y="120" width="40" height="760" as="geometry" />
        </mxCell>
        <mxCell id="411L8g53TmraRrab_YB8-88" value="" style="shape=umlLifeline;participant=umlEntity;perimeter=lifelinePerimeter;whiteSpace=wrap;html=1;container=1;collapsible=0;recursiveResize=0;verticalAlign=top;spacingTop=36;outlineConnect=0;" vertex="1" parent="1">
          <mxGeometry x="1178" y="120" width="40" height="760" as="geometry" />
        </mxCell>
        <mxCell id="411L8g53TmraRrab_YB8-89" value="" style="shape=umlLifeline;participant=umlEntity;perimeter=lifelinePerimeter;whiteSpace=wrap;html=1;container=1;collapsible=0;recursiveResize=0;verticalAlign=top;spacingTop=36;outlineConnect=0;" vertex="1" parent="1">
          <mxGeometry x="1278" y="120" width="46" height="760" as="geometry" />
        </mxCell>
        <mxCell id="411L8g53TmraRrab_YB8-108" value="项目" style="html=1;shadow=0;" vertex="1" parent="1">
          <mxGeometry x="125" y="60" width="60" height="50" as="geometry" />
        </mxCell>
        <mxCell id="411L8g53TmraRrab_YB8-110" value="构件型号" style="html=1;shadow=0;" vertex="1" parent="1">
          <mxGeometry x="233" y="60" width="60" height="50" as="geometry" />
        </mxCell>
        <mxCell id="411L8g53TmraRrab_YB8-111" value="构件" style="html=1;shadow=0;" vertex="1" parent="1">
          <mxGeometry x="341" y="60" width="60" height="50" as="geometry" />
        </mxCell>
        <mxCell id="411L8g53TmraRrab_YB8-112" value="物料" style="html=1;shadow=0;" vertex="1" parent="1">
          <mxGeometry x="449" y="60" width="60" height="50" as="geometry" />
        </mxCell>
        <mxCell id="411L8g53TmraRrab_YB8-113" value="原料" style="html=1;shadow=0;" vertex="1" parent="1">
          <mxGeometry x="558" y="60" width="60" height="50" as="geometry" />
        </mxCell>
        <mxCell id="411L8g53TmraRrab_YB8-119" value="维护" style="edgeStyle=orthogonalEdgeStyle;rounded=0;orthogonalLoop=1;jettySize=auto;html=1;" edge="1" parent="1" source="411L8g53TmraRrab_YB8-117" target="411L8g53TmraRrab_YB8-118">
          <mxGeometry relative="1" as="geometry" />
        </mxCell>
        <mxCell id="411L8g53TmraRrab_YB8-117" value="" style="html=1;shadow=0;" vertex="1" parent="1">
          <mxGeometry x="147.5" y="170" width="15" height="70" as="geometry" />
        </mxCell>
        <mxCell id="411L8g53TmraRrab_YB8-131" style="edgeStyle=orthogonalEdgeStyle;rounded=0;orthogonalLoop=1;jettySize=auto;html=1;exitX=1;exitY=0.5;exitDx=0;exitDy=0;entryX=1;entryY=0.5;entryDx=0;entryDy=0;" edge="1" parent="1" source="411L8g53TmraRrab_YB8-118" target="411L8g53TmraRrab_YB8-125">
          <mxGeometry relative="1" as="geometry" />
        </mxCell>
        <mxCell id="411L8g53TmraRrab_YB8-132" value="维护" style="edgeLabel;html=1;align=center;verticalAlign=middle;resizable=0;points=[];" vertex="1" connectable="0" parent="411L8g53TmraRrab_YB8-131">
          <mxGeometry x="0.1125" y="3" relative="1" as="geometry">
            <mxPoint as="offset" />
          </mxGeometry>
        </mxCell>
        <mxCell id="411L8g53TmraRrab_YB8-137" style="edgeStyle=orthogonalEdgeStyle;rounded=0;orthogonalLoop=1;jettySize=auto;html=1;entryX=-0.039;entryY=0.449;entryDx=0;entryDy=0;entryPerimeter=0;" edge="1" parent="1" source="411L8g53TmraRrab_YB8-118" target="411L8g53TmraRrab_YB8-136">
          <mxGeometry relative="1" as="geometry" />
        </mxCell>
        <mxCell id="411L8g53TmraRrab_YB8-138" value="维护" style="edgeLabel;html=1;align=center;verticalAlign=middle;resizable=0;points=[];" vertex="1" connectable="0" parent="411L8g53TmraRrab_YB8-137">
          <mxGeometry x="0.1403" y="-3" relative="1" as="geometry">
            <mxPoint as="offset" />
          </mxGeometry>
        </mxCell>
        <mxCell id="411L8g53TmraRrab_YB8-118" value="" style="html=1;shadow=0;" vertex="1" parent="1">
          <mxGeometry x="249.5" y="170" width="15" height="70" as="geometry" />
        </mxCell>
        <mxCell id="411L8g53TmraRrab_YB8-125" value="" style="html=1;shadow=0;" vertex="1" parent="1">
          <mxGeometry x="250.5" y="295" width="15" height="70" as="geometry" />
        </mxCell>
        <mxCell id="411L8g53TmraRrab_YB8-129" value="" style="edgeStyle=orthogonalEdgeStyle;rounded=0;orthogonalLoop=1;jettySize=auto;html=1;" edge="1" parent="1" source="411L8g53TmraRrab_YB8-128" target="411L8g53TmraRrab_YB8-125">
          <mxGeometry relative="1" as="geometry" />
        </mxCell>
        <mxCell id="411L8g53TmraRrab_YB8-130" value="变更" style="edgeLabel;html=1;align=center;verticalAlign=middle;resizable=0;points=[];" vertex="1" connectable="0" parent="411L8g53TmraRrab_YB8-129">
          <mxGeometry x="-0.3495" y="-6" relative="1" as="geometry">
            <mxPoint x="14" y="-6" as="offset" />
          </mxGeometry>
        </mxCell>
        <mxCell id="411L8g53TmraRrab_YB8-128" value="" style="html=1;shadow=0;" vertex="1" parent="1">
          <mxGeometry x="147.5" y="295" width="15" height="70" as="geometry" />
        </mxCell>
        <mxCell id="411L8g53TmraRrab_YB8-135" style="edgeStyle=orthogonalEdgeStyle;rounded=0;orthogonalLoop=1;jettySize=auto;html=1;exitX=1;exitY=0.5;exitDx=0;exitDy=0;entryX=0;entryY=0.5;entryDx=0;entryDy=0;" edge="1" parent="1" source="411L8g53TmraRrab_YB8-133" target="411L8g53TmraRrab_YB8-134">
          <mxGeometry relative="1" as="geometry" />
        </mxCell>
        <mxCell id="411L8g53TmraRrab_YB8-139" value="Text" style="edgeLabel;html=1;align=center;verticalAlign=middle;resizable=0;points=[];" vertex="1" connectable="0" parent="411L8g53TmraRrab_YB8-135">
          <mxGeometry x="0.3783" y="-1" relative="1" as="geometry">
            <mxPoint as="offset" />
          </mxGeometry>
        </mxCell>
        <mxCell id="411L8g53TmraRrab_YB8-176" value="Text" style="edgeLabel;html=1;align=center;verticalAlign=middle;resizable=0;points=[];" vertex="1" connectable="0" parent="411L8g53TmraRrab_YB8-135">
          <mxGeometry x="0.3729" y="-1" relative="1" as="geometry">
            <mxPoint as="offset" />
          </mxGeometry>
        </mxCell>
        <mxCell id="411L8g53TmraRrab_YB8-177" value="采购" style="edgeLabel;html=1;align=center;verticalAlign=middle;resizable=0;points=[];" vertex="1" connectable="0" parent="411L8g53TmraRrab_YB8-135">
          <mxGeometry x="0.3659" y="-1" relative="1" as="geometry">
            <mxPoint x="-51" as="offset" />
          </mxGeometry>
        </mxCell>
        <mxCell id="411L8g53TmraRrab_YB8-133" value="" style="html=1;shadow=0;" vertex="1" parent="1">
          <mxGeometry x="147.5" y="395" width="15" height="70" as="geometry" />
        </mxCell>
        <mxCell id="411L8g53TmraRrab_YB8-143" style="edgeStyle=orthogonalEdgeStyle;rounded=0;orthogonalLoop=1;jettySize=auto;html=1;exitX=1;exitY=0.5;exitDx=0;exitDy=0;entryX=1;entryY=0.5;entryDx=0;entryDy=0;" edge="1" parent="1" source="411L8g53TmraRrab_YB8-134" target="411L8g53TmraRrab_YB8-142">
          <mxGeometry relative="1" as="geometry" />
        </mxCell>
        <mxCell id="411L8g53TmraRrab_YB8-144" value="验收入库" style="edgeLabel;html=1;align=center;verticalAlign=middle;resizable=0;points=[];" vertex="1" connectable="0" parent="411L8g53TmraRrab_YB8-143">
          <mxGeometry x="-0.2759" y="-4" relative="1" as="geometry">
            <mxPoint x="12" y="25" as="offset" />
          </mxGeometry>
        </mxCell>
        <mxCell id="411L8g53TmraRrab_YB8-193" style="edgeStyle=orthogonalEdgeStyle;rounded=0;orthogonalLoop=1;jettySize=auto;html=1;exitX=1;exitY=0.25;exitDx=0;exitDy=0;entryX=0;entryY=0.25;entryDx=0;entryDy=0;" edge="1" parent="1" source="411L8g53TmraRrab_YB8-134" target="411L8g53TmraRrab_YB8-192">
          <mxGeometry relative="1" as="geometry" />
        </mxCell>
        <mxCell id="411L8g53TmraRrab_YB8-134" value="" style="html=1;shadow=0;" vertex="1" parent="1">
          <mxGeometry x="580" y="395" width="15" height="70" as="geometry" />
        </mxCell>
        <mxCell id="411L8g53TmraRrab_YB8-174" style="edgeStyle=orthogonalEdgeStyle;rounded=0;orthogonalLoop=1;jettySize=auto;html=1;exitX=0;exitY=0.5;exitDx=0;exitDy=0;entryX=0;entryY=0.25;entryDx=0;entryDy=0;" edge="1" parent="1" source="411L8g53TmraRrab_YB8-142" target="411L8g53TmraRrab_YB8-151">
          <mxGeometry relative="1" as="geometry" />
        </mxCell>
        <mxCell id="411L8g53TmraRrab_YB8-175" value="领用" style="edgeLabel;html=1;align=center;verticalAlign=middle;resizable=0;points=[];" vertex="1" connectable="0" parent="411L8g53TmraRrab_YB8-174">
          <mxGeometry x="0.2997" y="3" relative="1" as="geometry">
            <mxPoint x="-6" y="-26" as="offset" />
          </mxGeometry>
        </mxCell>
        <mxCell id="411L8g53TmraRrab_YB8-142" value="" style="html=1;shadow=0;" vertex="1" parent="1">
          <mxGeometry x="580" y="495" width="15" height="70" as="geometry" />
        </mxCell>
        <mxCell id="411L8g53TmraRrab_YB8-148" style="edgeStyle=orthogonalEdgeStyle;rounded=0;orthogonalLoop=1;jettySize=auto;html=1;exitX=0;exitY=0.5;exitDx=0;exitDy=0;entryX=1;entryY=0.5;entryDx=0;entryDy=0;entryPerimeter=0;" edge="1" parent="1" source="411L8g53TmraRrab_YB8-145" target="411L8g53TmraRrab_YB8-146">
          <mxGeometry relative="1" as="geometry" />
        </mxCell>
        <mxCell id="411L8g53TmraRrab_YB8-154" value="生产" style="edgeLabel;html=1;align=center;verticalAlign=middle;resizable=0;points=[];" vertex="1" connectable="0" parent="411L8g53TmraRrab_YB8-148">
          <mxGeometry x="0.274" y="1" relative="1" as="geometry">
            <mxPoint x="18" y="-1" as="offset" />
          </mxGeometry>
        </mxCell>
        <mxCell id="411L8g53TmraRrab_YB8-145" value="" style="html=1;shadow=0;" vertex="1" parent="1">
          <mxGeometry x="472" y="635" width="15" height="70" as="geometry" />
        </mxCell>
        <mxCell id="411L8g53TmraRrab_YB8-156" style="edgeStyle=orthogonalEdgeStyle;rounded=0;orthogonalLoop=1;jettySize=auto;html=1;exitX=0;exitY=0.5;exitDx=0;exitDy=0;entryX=0;entryY=0.25;entryDx=0;entryDy=0;" edge="1" parent="1" source="411L8g53TmraRrab_YB8-146" target="411L8g53TmraRrab_YB8-155">
          <mxGeometry relative="1" as="geometry" />
        </mxCell>
        <mxCell id="411L8g53TmraRrab_YB8-157" value="入库" style="edgeLabel;html=1;align=center;verticalAlign=middle;resizable=0;points=[];" vertex="1" connectable="0" parent="411L8g53TmraRrab_YB8-156">
          <mxGeometry x="0.1733" relative="1" as="geometry">
            <mxPoint as="offset" />
          </mxGeometry>
        </mxCell>
        <mxCell id="411L8g53TmraRrab_YB8-146" value="" style="html=1;shadow=0;" vertex="1" parent="1">
          <mxGeometry x="349.5" y="635" width="15" height="145" as="geometry" />
        </mxCell>
        <mxCell id="411L8g53TmraRrab_YB8-152" style="edgeStyle=orthogonalEdgeStyle;rounded=0;orthogonalLoop=1;jettySize=auto;html=1;entryX=1;entryY=0.5;entryDx=0;entryDy=0;" edge="1" parent="1" source="411L8g53TmraRrab_YB8-151" target="411L8g53TmraRrab_YB8-145">
          <mxGeometry relative="1" as="geometry" />
        </mxCell>
        <mxCell id="411L8g53TmraRrab_YB8-153" value="加工" style="edgeLabel;html=1;align=center;verticalAlign=middle;resizable=0;points=[];" vertex="1" connectable="0" parent="411L8g53TmraRrab_YB8-152">
          <mxGeometry x="0.2133" y="4" relative="1" as="geometry">
            <mxPoint x="4" y="-4" as="offset" />
          </mxGeometry>
        </mxCell>
        <mxCell id="411L8g53TmraRrab_YB8-151" value="" style="html=1;shadow=0;" vertex="1" parent="1">
          <mxGeometry x="580" y="635" width="15" height="70" as="geometry" />
        </mxCell>
        <mxCell id="411L8g53TmraRrab_YB8-179" style="edgeStyle=orthogonalEdgeStyle;rounded=0;orthogonalLoop=1;jettySize=auto;html=1;exitX=1;exitY=0.75;exitDx=0;exitDy=0;entryX=1;entryY=0.25;entryDx=0;entryDy=0;" edge="1" parent="1" source="411L8g53TmraRrab_YB8-155" target="411L8g53TmraRrab_YB8-167">
          <mxGeometry relative="1" as="geometry" />
        </mxCell>
        <mxCell id="411L8g53TmraRrab_YB8-180" value="出库" style="edgeLabel;html=1;align=center;verticalAlign=middle;resizable=0;points=[];" vertex="1" connectable="0" parent="411L8g53TmraRrab_YB8-179">
          <mxGeometry x="0.1363" relative="1" as="geometry">
            <mxPoint x="-5" y="-18" as="offset" />
          </mxGeometry>
        </mxCell>
        <mxCell id="411L8g53TmraRrab_YB8-155" value="" style="html=1;shadow=0;" vertex="1" parent="1">
          <mxGeometry x="349.5" y="998.5" width="15" height="70" as="geometry" />
        </mxCell>
        <mxCell id="411L8g53TmraRrab_YB8-171" value="领导" style="shape=umlActor;verticalLabelPosition=bottom;verticalAlign=top;html=1;outlineConnect=0;flipV=0;" vertex="1" parent="1">
          <mxGeometry x="40" y="1228.5" width="30" height="60" as="geometry" />
        </mxCell>
        <mxCell id="411L8g53TmraRrab_YB8-181" value="移库" style="edgeStyle=orthogonalEdgeStyle;rounded=0;orthogonalLoop=1;jettySize=auto;html=1;exitX=1;exitY=0.25;exitDx=0;exitDy=0;entryX=1;entryY=0.5;entryDx=0;entryDy=0;" edge="1" parent="1" source="411L8g53TmraRrab_YB8-155" target="411L8g53TmraRrab_YB8-155">
          <mxGeometry relative="1" as="geometry">
            <Array as="points">
              <mxPoint x="400" y="1015.5" />
              <mxPoint x="400" y="1033.5" />
            </Array>
          </mxGeometry>
        </mxCell>
        <mxCell id="411L8g53TmraRrab_YB8-182" value="权限" style="html=1;shadow=0;" vertex="1" parent="1">
          <mxGeometry x="1278" y="60" width="60" height="50" as="geometry" />
        </mxCell>
        <mxCell id="411L8g53TmraRrab_YB8-183" value="人员" style="html=1;shadow=0;" vertex="1" parent="1">
          <mxGeometry x="1170" y="60" width="60" height="50" as="geometry" />
        </mxCell>
        <mxCell id="411L8g53TmraRrab_YB8-184" value="客户" style="html=1;shadow=0;" vertex="1" parent="1">
          <mxGeometry x="880" y="60" width="60" height="50" as="geometry" />
        </mxCell>
        <mxCell id="411L8g53TmraRrab_YB8-185" value="工艺" style="html=1;shadow=0;" vertex="1" parent="1">
          <mxGeometry x="660" y="60" width="60" height="50" as="geometry" />
        </mxCell>
        <mxCell id="411L8g53TmraRrab_YB8-186" value="搅拌站" style="html=1;shadow=0;" vertex="1" parent="1">
          <mxGeometry x="760" y="60" width="60" height="50" as="geometry" />
        </mxCell>
        <mxCell id="411L8g53TmraRrab_YB8-187" value="" style="shape=umlLifeline;participant=umlEntity;perimeter=lifelinePerimeter;whiteSpace=wrap;html=1;container=1;collapsible=0;recursiveResize=0;verticalAlign=top;spacingTop=36;outlineConnect=0;" vertex="1" parent="1">
          <mxGeometry x="887" y="120" width="46" height="1140" as="geometry" />
        </mxCell>
        <mxCell id="411L8g53TmraRrab_YB8-188" value="" style="shape=umlLifeline;participant=umlEntity;perimeter=lifelinePerimeter;whiteSpace=wrap;html=1;container=1;collapsible=0;recursiveResize=0;verticalAlign=top;spacingTop=36;outlineConnect=0;" vertex="1" parent="1">
          <mxGeometry x="667" y="120" width="46" height="760" as="geometry" />
        </mxCell>
        <mxCell id="411L8g53TmraRrab_YB8-189" value="" style="shape=umlLifeline;participant=umlEntity;perimeter=lifelinePerimeter;whiteSpace=wrap;html=1;container=1;collapsible=0;recursiveResize=0;verticalAlign=top;spacingTop=36;outlineConnect=0;" vertex="1" parent="1">
          <mxGeometry x="767" y="120" width="46" height="760" as="geometry" />
        </mxCell>
        <mxCell id="411L8g53TmraRrab_YB8-201" style="edgeStyle=orthogonalEdgeStyle;rounded=0;orthogonalLoop=1;jettySize=auto;html=1;exitX=1;exitY=0.25;exitDx=0;exitDy=0;entryX=1;entryY=0.5;entryDx=0;entryDy=0;" edge="1" parent="1" source="411L8g53TmraRrab_YB8-192" target="411L8g53TmraRrab_YB8-194">
          <mxGeometry relative="1" as="geometry" />
        </mxCell>
        <mxCell id="411L8g53TmraRrab_YB8-192" value="" style="html=1;shadow=0;" vertex="1" parent="1">
          <mxGeometry x="782.5" y="395" width="15" height="70" as="geometry" />
        </mxCell>
        <mxCell id="411L8g53TmraRrab_YB8-195" style="edgeStyle=orthogonalEdgeStyle;rounded=0;orthogonalLoop=1;jettySize=auto;html=1;exitX=0;exitY=0.5;exitDx=0;exitDy=0;entryX=1;entryY=0.5;entryDx=0;entryDy=0;" edge="1" parent="1" source="411L8g53TmraRrab_YB8-194" target="411L8g53TmraRrab_YB8-197">
          <mxGeometry relative="1" as="geometry">
            <mxPoint x="490" y="760" as="targetPoint" />
          </mxGeometry>
        </mxCell>
        <mxCell id="411L8g53TmraRrab_YB8-200" value="搅拌供应" style="edgeLabel;html=1;align=center;verticalAlign=middle;resizable=0;points=[];" vertex="1" connectable="0" parent="411L8g53TmraRrab_YB8-195">
          <mxGeometry x="0.0822" y="2" relative="1" as="geometry">
            <mxPoint as="offset" />
          </mxGeometry>
        </mxCell>
        <mxCell id="411L8g53TmraRrab_YB8-194" value="" style="html=1;shadow=0;" vertex="1" parent="1">
          <mxGeometry x="782.5" y="720" width="15" height="70" as="geometry" />
        </mxCell>
        <mxCell id="411L8g53TmraRrab_YB8-198" style="edgeStyle=orthogonalEdgeStyle;rounded=0;orthogonalLoop=1;jettySize=auto;html=1;exitX=0;exitY=0.5;exitDx=0;exitDy=0;entryX=1;entryY=0.5;entryDx=0;entryDy=0;" edge="1" parent="1" source="411L8g53TmraRrab_YB8-197" target="411L8g53TmraRrab_YB8-146">
          <mxGeometry relative="1" as="geometry" />
        </mxCell>
        <mxCell id="411L8g53TmraRrab_YB8-197" value="" style="html=1;shadow=0;" vertex="1" parent="1">
          <mxGeometry x="472" y="720" width="15" height="70" as="geometry" />
        </mxCell>
        <mxCell id="411L8g53TmraRrab_YB8-204" style="edgeStyle=orthogonalEdgeStyle;rounded=0;orthogonalLoop=1;jettySize=auto;html=1;exitX=1;exitY=0.5;exitDx=0;exitDy=0;entryX=0;entryY=0.5;entryDx=0;entryDy=0;" edge="1" parent="1" source="411L8g53TmraRrab_YB8-167" target="411L8g53TmraRrab_YB8-203">
          <mxGeometry relative="1" as="geometry" />
        </mxCell>
        <mxCell id="411L8g53TmraRrab_YB8-208" style="edgeStyle=orthogonalEdgeStyle;rounded=0;orthogonalLoop=1;jettySize=auto;html=1;exitX=0;exitY=0.5;exitDx=0;exitDy=0;entryX=1;entryY=0.5;entryDx=0;entryDy=0;" edge="1" parent="1" source="411L8g53TmraRrab_YB8-205" target="411L8g53TmraRrab_YB8-209">
          <mxGeometry relative="1" as="geometry" />
        </mxCell>
        <mxCell id="411L8g53TmraRrab_YB8-210" value="质检" style="edgeLabel;html=1;align=center;verticalAlign=middle;resizable=0;points=[];" vertex="1" connectable="0" parent="411L8g53TmraRrab_YB8-208">
          <mxGeometry x="-0.1151" y="-2" relative="1" as="geometry">
            <mxPoint as="offset" />
          </mxGeometry>
        </mxCell>
        <mxCell id="411L8g53TmraRrab_YB8-211" style="edgeStyle=orthogonalEdgeStyle;rounded=0;orthogonalLoop=1;jettySize=auto;html=1;exitX=0;exitY=0.25;exitDx=0;exitDy=0;entryX=1;entryY=0.75;entryDx=0;entryDy=0;" edge="1" parent="1" source="411L8g53TmraRrab_YB8-205" target="411L8g53TmraRrab_YB8-197">
          <mxGeometry relative="1" as="geometry" />
        </mxCell>
        <mxCell id="411L8g53TmraRrab_YB8-205" value="" style="html=1;shadow=0;" vertex="1" parent="1">
          <mxGeometry x="682.5" y="792.5" width="15" height="70" as="geometry" />
        </mxCell>
        <mxCell id="411L8g53TmraRrab_YB8-209" value="" style="html=1;shadow=0;" vertex="1" parent="1">
          <mxGeometry x="349.5" y="795" width="15" height="65" as="geometry" />
        </mxCell>
        <mxCell id="411L8g53TmraRrab_YB8-203" value="" style="html=1;shadow=0;" vertex="1" parent="1">
          <mxGeometry x="902.5" y="1108.5" width="15" height="70" as="geometry" />
        </mxCell>
        <mxCell id="411L8g53TmraRrab_YB8-213" value="" style="edgeStyle=orthogonalEdgeStyle;rounded=0;orthogonalLoop=1;jettySize=auto;html=1;" edge="1" parent="1" source="411L8g53TmraRrab_YB8-212" target="411L8g53TmraRrab_YB8-151">
          <mxGeometry relative="1" as="geometry" />
        </mxCell>
        <mxCell id="411L8g53TmraRrab_YB8-212" value="" style="html=1;shadow=0;" vertex="1" parent="1">
          <mxGeometry x="682.5" y="635" width="15" height="70" as="geometry" />
        </mxCell>
      </root>
    </mxGraphModel>
  </diagram>
</mxfile>
